<?xml version="1.0" encoding="UTF-8" standalone="no"?>
<svg width="282.222mm" height="339.725mm"
 viewBox="0 0 800 963"
 xmlns="http://www.w3.org/2000/svg" xmlns:xlink="http://www.w3.org/1999/xlink"  version="1.2" baseProfile="tiny">
<title>Qt SVG Document</title>
<desc>Generated with Qt</desc>
<defs>
</defs>
<g fill="none" stroke="black" stroke-width="1" fill-rule="evenodd" stroke-linecap="square" stroke-linejoin="bevel" >

<g fill="#000000" fill-opacity="1" stroke="none" transform="matrix(1,0,0,1,0,0)"
font-family="" font-size="-1" font-weight="400" font-style="normal" 
>
<path vector-effect="none" fill-rule="evenodd" d="M0,0 L0,963 L800,963 L800,0 L0,0"/>
</g>

<g fill="#34dbea" fill-opacity="0.611765" stroke="none" transform="matrix(1,0,0,1,0,0)"
font-family="" font-size="-1" font-weight="400" font-style="normal" 
>
<path vector-effect="none" fill-rule="evenodd" d="M436,461 L436,462 L436,463 L436,464 L436,465 L436,463 L442,463 L436,463 L436,461"/>
</g>

<g fill="#062127" fill-opacity="0.545098" stroke="none" transform="matrix(1,0,0,1,0,0)"
font-family="" font-size="-1" font-weight="400" font-style="normal" 
>
<path vector-effect="none" fill-rule="evenodd" d="M46,713 L45,713 L46,712 L45,712 L43,713 L44,712 L53,718 L51,718 L48,718 L48,717 L50,715 L43,715 L47,715 L50,715 L50,721 L46,715 L48,715 L49,715 L48,715 L47,715 L46,715 L46,721 L47,724 L44,720 L47,715 L55,715 L57,715 L52,716 L46,717 L47,716 L46,713"/>
</g>

<g fill="#dceb88" fill-opacity="0.803922" stroke="none" transform="matrix(1,0,0,1,0,0)"
font-family="" font-size="-1" font-weight="400" font-style="normal" 
>
<path vector-effect="none" fill-rule="evenodd" d="M340,346 L343,346 L348,343 L347,343 L347,340 L347,342 L353,342 L341,334 L342,335 L343,335 L347,338 L347,349 L347,347 L347,345 L347,344 L347,342 L347,339 L346,340 L348,341 L347,342 L346,342 L346,343 L343,343 L345,344 L348,344 L336,355 L349,357 L350,356 L355,355 L357,355 L358,355 L364,360 L340,346"/>
</g>

<g fill="#083488" fill-opacity="0.396078" stroke="none" transform="matrix(1,0,0,1,0,0)"
font-family="" font-size="-1" font-weight="400" font-style="normal" 
>
<path vector-effect="none" fill-rule="evenodd" d="M25,464 L27,464 L29,463 L30,463 L30,462 L30,461 L31,460 L31,459 L25,464"/>
</g>

<g fill="#6c2725" fill-opacity="0.352941" stroke="none" transform="matrix(1,0,0,1,0,0)"
font-family="" font-size="-1" font-weight="400" font-style="normal" 
>
<path vector-effect="none" fill-rule="evenodd" d="M338,403 L342,405 L342,404 L344,406 L345,406 L345,410 L345,406 L338,406 L339,406 L340,406 L341,406 L342,406 L345,406 L338,403"/>
</g>

<g fill="#acbd45" fill-opacity="0.678431" stroke="none" transform="matrix(1,0,0,1,0,0)"
font-family="" font-size="-1" font-weight="400" font-style="normal" 
>
<path vector-effect="none" fill-rule="evenodd" d="M344,314 L343,307 L342,300 L339,286 L340,283 L336,272 L327,246 L323,241 L323,240 L322,239 L321,240 L320,225 L320,221 L319,217 L287,232 L283,241 L279,249 L271,246 L264,243 L260,240 L254,236 L253,235 L252,234 L249,232 L248,231 L243,225 L241,217 L238,208 L238,207 L238,206 L238,204 L234,200 L232,194 L229,191 L226,188 L225,188 L223,187 L213,184 L198,182 L195,181 L192,181 L189,180 L182,173 L344,314"/>
</g>

<g fill="#a4a9b1" fill-opacity="0.411765" stroke="none" transform="matrix(1,0,0,1,0,0)"
font-family="" font-size="-1" font-weight="400" font-style="normal" 
>
<path vector-effect="none" fill-rule="evenodd" d="M207,502 L205,502 L203,502 L207,502 L208,501 L208,509 L208,496 L208,497 L208,498 L208,500 L208,501 L208,502 L208,508 L208,504 L208,506 L208,508 L209,508 L209,509 L209,507 L209,506 L209,503 L209,509 L209,508 L209,507 L207,502"/>
</g>

<g fill="#86967d" fill-opacity="0.623529" stroke="none" transform="matrix(1,0,0,1,0,0)"
font-family="" font-size="-1" font-weight="400" font-style="normal" 
>
<path vector-effect="none" fill-rule="evenodd" d="M230,92 L240,101 L253,104 L245,106 L250,110 L285,128 L286,125 L287,123 L288,122 L291,118 L292,118 L292,117 L292,116 L293,114 L285,113 L300,105 L302,101 L304,98 L305,101 L303,92 L301,92 L302,92 L303,92 L306,92 L313,90 L319,88 L325,86 L327,85 L328,84 L327,83 L328,78 L328,77 L327,76 L326,73 L326,79 L326,76 L326,73 L328,77 L329,80 L334,74 L339,68 L342,65 L345,48 L316,24 L230,92"/>
</g>

<g fill="#e1d660" fill-opacity="0.996078" stroke="none" transform="matrix(1,0,0,1,0,0)"
font-family="" font-size="-1" font-weight="400" font-style="normal" 
>
<path vector-effect="none" fill-rule="evenodd" d="M353,947 L357,947 L344,947 L341,946 L342,937 L341,947 L347,947 L352,947 L370,941 L377,935 L367,924 L285,898 L280,862 L295,735 L301,732 L305,719 L349,690 L371,675 L393,660 L393,655 L393,650 L393,644 L393,638 L392,608 L404,613 L414,617 L466,635 L514,642 L561,649 L568,661 L574,673 L587,697 L587,702 L587,710 L584,711 L586,712 L586,713 L583,721 L585,747 L587,773 L585,795 L583,817 L594,850 L673,863 L353,947"/>
</g>

<g fill="#bc961e" fill-opacity="0.286275" stroke="none" transform="matrix(1,0,0,1,0,0)"
font-family="" font-size="-1" font-weight="400" font-style="normal" 
>
<path vector-effect="none" fill-rule="evenodd" d="M356,378 L358,378 L359,378 L356,378"/>
</g>

<g fill="#95ae43" fill-opacity="0.823529" stroke="none" transform="matrix(1,0,0,1,0,0)"
font-family="" font-size="-1" font-weight="400" font-style="normal" 
>
<path vector-effect="none" fill-rule="evenodd" d="M370,587 L371,580 L372,573 L385,558 L397,543 L401,529 L400,527 L399,526 L399,525 L398,524 L398,523 L397,521 L395,518 L379,509 L367,454 L367,407 L356,375 L343,368 L339,365 L335,362 L331,359 L326,355 L319,352 L316,350 L302,343 L295,339 L288,334 L288,333 L287,332 L284,328 L281,323 L264,295 L269,295 L263,297 L263,296 L263,295 L264,297 L265,298 L265,295 L265,292 L260,278 L255,264 L253,259 L250,252 L248,245 L245,236 L235,208 L370,587"/>
</g>

<g fill="#0d62e5" fill-opacity="0.913725" stroke="none" transform="matrix(1,0,0,1,0,0)"
font-family="" font-size="-1" font-weight="400" font-style="normal" 
>
<path vector-effect="none" fill-rule="evenodd" d="M426,512 L426,508 L426,509 L427,510 L433,517 L443,517 L431,515 L431,514 L434,514 L433,514 L429,514 L435,515 L428,515 L426,515 L424,519 L426,518 L426,514 L426,513 L426,512 L426,502 L427,512 L427,511 L427,510 L426,510 L424,510 L422,509 L422,508 L419,508 L418,508 L416,508 L418,508 L416,507 L416,508 L416,507 L416,506 L416,507 L416,509 L416,510 L416,508 L407,508 L412,508 L416,507 L426,512"/>
</g>

<g fill="#fab0c7" fill-opacity="0.188235" stroke="none" transform="matrix(1,0,0,1,0,0)"
font-family="" font-size="-1" font-weight="400" font-style="normal" 
>
<path vector-effect="none" fill-rule="evenodd" d="M212,963 L128,963 L87,937 L83,887 L102,845 L105,842 L107,839 L113,831 L117,823 L100,642 L110,609 L117,591 L120,582 L123,572 L126,564 L129,556 L157,476 L160,472 L172,441 L184,408 L185,416 L188,411 L189,409 L190,406 L191,410 L191,412 L196,416 L200,418 L207,421 L208,421 L209,421 L219,415 L218,412 L220,419 L223,418 L230,415 L228,415 L227,415 L225,414 L226,414 L226,413 L227,413 L227,412 L229,407 L212,963"/>
</g>

<g fill="#fc906f" fill-opacity="0.235294" stroke="none" transform="matrix(1,0,0,1,0,0)"
font-family="" font-size="-1" font-weight="400" font-style="normal" 
>
<path vector-effect="none" fill-rule="evenodd" d="M777,791 L780,790 L782,790 L783,789 L793,784 L794,786 L797,788 L794,783 L795,783 L785,783 L792,786 L798,788 L800,787 L800,785 L800,783 L800,781 L800,780 L800,779 L800,689 L800,678 L767,626 L759,620 L750,614 L721,621 L707,625 L692,628 L678,623 L657,632 L652,634 L646,636 L625,640 L617,641 L603,632 L589,622 L575,613 L560,603 L363,672 L346,684 L343,689 L340,693 L337,698 L334,702 L331,719 L324,730 L323,730 L329,729 L319,734 L308,738 L777,791"/>
</g>

<g fill="#6a89aa" fill-opacity="0.329412" stroke="none" transform="matrix(1,0,0,1,0,0)"
font-family="" font-size="-1" font-weight="400" font-style="normal" 
>
<path vector-effect="none" fill-rule="evenodd" d="M297,627 L302,627 L300,627 L297,628 L297,627 L297,624 L296,621 L296,622 L296,623 L287,623 L297,623 L297,622 L297,621 L297,622 L297,623 L298,621 L297,627"/>
</g>

<g fill="#7282bb" fill-opacity="0.466667" stroke="none" transform="matrix(1,0,0,1,0,0)"
font-family="" font-size="-1" font-weight="400" font-style="normal" 
>
<path vector-effect="none" fill-rule="evenodd" d="M206,777 L203,777 L211,777 L206,777 L201,777 L206,777"/>
</g>

<g fill="#ca8c46" fill-opacity="0.588235" stroke="none" transform="matrix(1,0,0,1,0,0)"
font-family="" font-size="-1" font-weight="400" font-style="normal" 
>
<path vector-effect="none" fill-rule="evenodd" d="M0,955 L0,959 L0,961 L0,963 L12,963 L19,963 L33,963 L35,963 L36,962 L37,963 L40,944 L45,932 L47,926 L49,920 L64,905 L79,889 L84,882 L95,863 L95,858 L118,827 L118,799 L84,715 L75,683 L90,674 L95,672 L107,664 L60,633 L47,629 L31,623 L7,623 L0,600 L0,955"/>
</g>

<g fill="#885bc4" fill-opacity="0.733333" stroke="none" transform="matrix(1,0,0,1,0,0)"
font-family="" font-size="-1" font-weight="400" font-style="normal" 
>
<path vector-effect="none" fill-rule="evenodd" d="M548,702 L542,702 L548,702"/>
</g>

<g fill="#c2dc01" fill-opacity="0.360784" stroke="none" transform="matrix(1,0,0,1,0,0)"
font-family="" font-size="-1" font-weight="400" font-style="normal" 
>
<path vector-effect="none" fill-rule="evenodd" d="M708,558 L708,554 L708,555 L708,556 L708,557 L708,558 L708,559 L707,560 L708,560 L704,559 L708,558 L709,555 L714,557 L709,555 L708,555 L706,555 L707,555 L710,555 L710,552 L711,555 L708,558"/>
</g>

<g fill="#f4be43" fill-opacity="0.882353" stroke="none" transform="matrix(1,0,0,1,0,0)"
font-family="" font-size="-1" font-weight="400" font-style="normal" 
>
<path vector-effect="none" fill-rule="evenodd" d="M283,176 L286,173 L289,178 L292,167 L293,166 L294,165 L294,164 L298,158 L302,152 L334,136 L379,124 L410,133 L421,157 L422,171 L422,170 L422,168 L420,157 L419,154 L417,148 L413,143 L412,132 L431,132 L439,136 L445,139 L460,163 L488,221 L492,232 L505,258 L489,271 L448,297 L438,309 L453,329 L471,348 L512,335 L511,347 L510,359 L510,365 L509,371 L508,382 L501,400 L493,405 L486,418 L483,423 L480,428 L471,465 L462,502 L283,176"/>
</g>

<g fill="#b92cd3" fill-opacity="0.972549" stroke="none" transform="matrix(1,0,0,1,0,0)"
font-family="" font-size="-1" font-weight="400" font-style="normal" 
>
<path vector-effect="none" fill-rule="evenodd" d="M622,768 L622,776 L622,778 L622,768 L622,771 L622,763 L622,757 L622,758 L622,761 L622,765 L622,766 L622,767 L622,772 L622,766 L623,767 L622,768 L622,770 L622,771 L622,770 L622,769 L622,768"/>
</g>

<g fill="#ea5847" fill-opacity="0.396078" stroke="none" transform="matrix(1,0,0,1,0,0)"
font-family="" font-size="-1" font-weight="400" font-style="normal" 
>
<path vector-effect="none" fill-rule="evenodd" d="M146,626 L146,625 L146,624 L146,625 L145,625 L140,630 L132,626 L140,626 L141,626 L142,626 L143,625 L146,626"/>
</g>

<g fill="#c6a65f" fill-opacity="0.533333" stroke="none" transform="matrix(1,0,0,1,0,0)"
font-family="" font-size="-1" font-weight="400" font-style="normal" 
>
<path vector-effect="none" fill-rule="evenodd" d="M236,0 L311,179 L283,199 L270,267 L276,297 L283,303 L305,315 L300,321 L279,337 L272,343 L268,347 L264,350 L274,419 L295,492 L308,510 L311,512 L312,513 L313,514 L358,557 L403,570 L417,563 L431,556 L458,541 L480,505 L495,474 L554,344 L554,340 L552,320 L549,306 L546,252 L562,206 L578,159 L769,60 L787,58 L797,40 L800,32 L800,25 L800,21 L799,17 L797,20 L799,14 L800,12 L800,9 L800,3 L800,0 L722,0 L236,0"/>
</g>

<g fill="#888959" fill-opacity="0.992157" stroke="none" transform="matrix(1,0,0,1,0,0)"
font-family="" font-size="-1" font-weight="400" font-style="normal" 
>
<path vector-effect="none" fill-rule="evenodd" d="M697,0 L704,18 L703,18 L702,18 L704,14 L703,12 L701,10 L697,5 L703,3 L709,0 L746,17 L800,61 L800,80 L800,85 L800,87 L800,88 L800,94 L800,149 L800,152 L793,142 L777,145 L752,149 L745,150 L740,151 L738,151 L727,144 L723,144 L665,173 L665,180 L665,176 L664,179 L659,163 L629,134 L697,0"/>
</g>

<g fill="#91525b" fill-opacity="0.560784" stroke="none" transform="matrix(1,0,0,1,0,0)"
font-family="" font-size="-1" font-weight="400" font-style="normal" 
>
<path vector-effect="none" fill-rule="evenodd" d="M526,630 L526,628 L525,626 L524,624 L523,622 L523,623 L523,624 L523,626 L523,630 L523,632 L522,633 L521,633 L530,633 L523,633 L525,633 L528,633 L526,633 L526,630"/>
</g>

<g fill="#d43884" fill-opacity="0.0156863" stroke="none" transform="matrix(1,0,0,1,0,0)"
font-family="" font-size="-1" font-weight="400" font-style="normal" 
>
<path vector-effect="none" fill-rule="evenodd" d="M455,262 L456,263 L457,263 L466,270 L467,271 L468,272 L469,268 L468,269 L465,269 L464,269 L463,269 L455,262"/>
</g>

<g fill="#f9e911" fill-opacity="0.890196" stroke="none" transform="matrix(1,0,0,1,0,0)"
font-family="" font-size="-1" font-weight="400" font-style="normal" 
>
<path vector-effect="none" fill-rule="evenodd" d="M338,395 L338,396 L338,398 L338,399 L338,397 L338,394 L338,392 L338,391 L347,390 L338,389 L338,390 L337,399 L336,390 L331,390 L333,390 L338,390 L338,391 L337,392 L336,393 L334,394 L335,395 L336,396 L339,399 L340,400 L341,401 L349,401 L329,403 L322,413 L327,414 L331,415 L338,395"/>
</g>

<g fill="#652109" fill-opacity="0.239216" stroke="none" transform="matrix(1,0,0,1,0,0)"
font-family="" font-size="-1" font-weight="400" font-style="normal" 
>
<path vector-effect="none" fill-rule="evenodd" d="M389,801 L389,794 L389,793 L390,793 L391,793 L391,792 L391,790 L391,792 L391,793 L389,801"/>
</g>

<g fill="#b8bf7c" fill-opacity="0.74902" stroke="none" transform="matrix(1,0,0,1,0,0)"
font-family="" font-size="-1" font-weight="400" font-style="normal" 
>
<path vector-effect="none" fill-rule="evenodd" d="M800,176 L800,152 L799,150 L798,148 L797,146 L796,144 L792,142 L785,144 L777,145 L769,146 L761,147 L739,150 L739,151 L739,152 L739,154 L739,158 L739,161 L739,162 L741,162 L742,162 L741,162 L740,162 L739,153 L733,147 L727,141 L661,171 L669,189 L671,194 L675,203 L687,249 L691,250 L692,250 L702,252 L706,253 L711,253 L707,253 L705,253 L703,253 L704,249 L715,246 L741,251 L758,254 L768,256 L778,258 L800,267 L800,176"/>
</g>

<g fill="#6cfdbd" fill-opacity="0.537255" stroke="none" transform="matrix(1,0,0,1,0,0)"
font-family="" font-size="-1" font-weight="400" font-style="normal" 
>
<path vector-effect="none" fill-rule="evenodd" d="M527,297 L527,292 L527,295 L527,296 L527,297 L527,298 L527,301 L527,302 L526,302 L527,303 L527,308 L527,311 L527,303 L531,302 L532,302 L522,302 L532,302 L527,302 L527,304 L527,302 L527,298 L527,297"/>
</g>

<g fill="#d07d2a" fill-opacity="0.337255" stroke="none" transform="matrix(1,0,0,1,0,0)"
font-family="" font-size="-1" font-weight="400" font-style="normal" 
>
<path vector-effect="none" fill-rule="evenodd" d="M386,349 L387,349 L388,349 L389,349 L386,349 L385,349 L390,349 L393,349 L395,349 L385,349 L386,349"/>
</g>

<g fill="#ab8508" fill-opacity="0.713725" stroke="none" transform="matrix(1,0,0,1,0,0)"
font-family="" font-size="-1" font-weight="400" font-style="normal" 
>
<path vector-effect="none" fill-rule="evenodd" d="M208,414 L207,415 L205,416 L206,414 L207,414 L208,413 L203,410 L203,418 L203,410 L202,409 L202,400 L202,409 L208,414"/>
</g>

<g fill="#d89d95" fill-opacity="0.00784314" stroke="none" transform="matrix(1,0,0,1,0,0)"
font-family="" font-size="-1" font-weight="400" font-style="normal" 
>
<path vector-effect="none" fill-rule="evenodd" d="M390,727 L389,727 L388,727 L386,728 L387,728 L385,728 L386,728 L391,718 L391,728 L392,728 L393,728 L394,728 L390,727"/>
</g>

<g fill="#7e8359" fill-opacity="0.901961" stroke="none" transform="matrix(1,0,0,1,0,0)"
font-family="" font-size="-1" font-weight="400" font-style="normal" 
>
<path vector-effect="none" fill-rule="evenodd" d="M0,61 L3,53 L5,44 L5,46 L5,44 L8,47 L10,49 L15,53 L20,58 L24,62 L122,110 L176,158 L186,167 L189,169 L191,171 L195,175 L229,211 L229,207 L229,209 L229,211 L223,211 L229,211 L228,220 L225,224 L212,275 L207,289 L218,331 L216,336 L213,341 L207,351 L196,371 L176,397 L144,469 L142,512 L129,576 L116,639 L99,647 L81,654 L80,653 L74,652 L71,651 L58,646 L57,655 L56,645 L52,644 L36,644 L19,644 L2,648 L0,657 L0,61"/>
</g>

<g fill="#4c4a35" fill-opacity="0.823529" stroke="none" transform="matrix(1,0,0,1,0,0)"
font-family="" font-size="-1" font-weight="400" font-style="normal" 
>
<path vector-effect="none" fill-rule="evenodd" d="M72,827 L94,812 L116,806 L116,808 L134,799 L166,754 L174,743 L175,741 L175,740 L178,735 L173,730 L179,731 L171,731 L177,710 L173,688 L195,645 L201,619 L206,602 L199,569 L191,546 L190,501 L190,479 L185,434 L183,422 L183,415 L179,409 L178,408 L177,407 L178,383 L177,378 L172,374 L166,370 L160,364 L154,359 L97,421 L98,440 L116,445 L110,444 L107,444 L101,449 L104,449 L105,449 L106,449 L103,449 L89,447 L75,444 L30,475 L31,510 L72,827"/>
</g>

<g fill="#de4fa7" fill-opacity="0.866667" stroke="none" transform="matrix(1,0,0,1,0,0)"
font-family="" font-size="-1" font-weight="400" font-style="normal" 
>
<path vector-effect="none" fill-rule="evenodd" d="M368,210 L368,207 L368,206 L368,204 L368,207 L368,209 L366,209 L374,210 L366,209 L368,209 L366,209 L375,209 L371,209 L366,209 L366,210 L365,210 L364,210 L365,212 L366,214 L366,215 L364,213 L364,207 L364,209 L364,211 L364,212 L368,210"/>
</g>

<g fill="#c8aa68" fill-opacity="0.490196" stroke="none" transform="matrix(1,0,0,1,0,0)"
font-family="" font-size="-1" font-weight="400" font-style="normal" 
>
<path vector-effect="none" fill-rule="evenodd" d="M19,9 L15,14 L10,18 L3,24 L0,24 L1,24 L2,24 L0,15 L0,54 L0,55 L0,56 L0,64 L0,134 L20,161 L84,248 L105,276 L154,306 L191,315 L227,323 L257,339 L266,337 L272,362 L263,364 L278,374 L280,376 L282,377 L284,377 L287,378 L288,378 L292,377 L283,377 L282,377 L281,377 L280,377 L278,377 L277,377 L277,394 L294,428 L311,441 L319,437 L362,428 L368,428 L445,415 L509,412 L19,9"/>
</g>

<g fill="#93a979" fill-opacity="0.513725" stroke="none" transform="matrix(1,0,0,1,0,0)"
font-family="" font-size="-1" font-weight="400" font-style="normal" 
>
<path vector-effect="none" fill-rule="evenodd" d="M717,486 L751,495 L768,500 L785,504 L793,505 L797,511 L800,491 L800,345 L800,340 L800,338 L800,335 L800,322 L800,309 L800,303 L800,263 L800,254 L800,263 L799,263 L800,263 L800,261 L800,239 L800,221 L800,228 L800,222 L800,223 L800,222 L800,221 L800,209 L738,248 L737,248 L739,248 L740,248 L727,247 L716,246 L710,247 L707,248 L704,248 L687,250 L688,251 L685,253 L687,259 L688,260 L689,271 L690,282 L690,285 L690,288 L717,486"/>
</g>

<g fill="#c6da8f" fill-opacity="0.580392" stroke="none" transform="matrix(1,0,0,1,0,0)"
font-family="" font-size="-1" font-weight="400" font-style="normal" 
>
<path vector-effect="none" fill-rule="evenodd" d="M242,1 L242,2 L241,2 L240,3 L239,3 L238,2 L236,0 L127,0 L70,0 L64,0 L63,0 L62,0 L59,0 L42,0 L25,0 L13,0 L4,0 L0,0 L0,16 L0,17 L0,19 L0,20 L0,23 L0,24 L1,25 L1,26 L3,37 L7,43 L10,49 L17,57 L58,62 L61,63 L63,63 L67,63 L201,180 L206,183 L210,185 L225,191 L254,188 L252,182 L256,178 L258,176 L259,174 L259,173 L268,153 L277,133 L242,1"/>
</g>

<g fill="#673388" fill-opacity="0.254902" stroke="none" transform="matrix(1,0,0,1,0,0)"
font-family="" font-size="-1" font-weight="400" font-style="normal" 
>
<path vector-effect="none" fill-rule="evenodd" d="M663,223 L667,220 L662,220 L664,222 L666,223 L669,225 L668,220 L667,220 L666,219 L667,219 L667,217 L662,216 L662,207 L662,210 L662,212 L662,209 L662,213 L661,215 L661,214 L673,213 L670,202 L651,196 L652,198 L649,202 L663,223"/>
</g>

<g fill="#0a84b8" fill-opacity="0.592157" stroke="none" transform="matrix(1,0,0,1,0,0)"
font-family="" font-size="-1" font-weight="400" font-style="normal" 
>
<path vector-effect="none" fill-rule="evenodd" d="M417,587 L414,588 L414,586 L414,584 L414,583 L414,582 L414,580 L414,577 L414,584 L414,583 L416,585 L415,585 L414,585 L414,588 L418,587 L419,587 L406,587 L405,587 L410,587 L414,587 L417,587"/>
</g>

<g fill="#ecb063" fill-opacity="0.580392" stroke="none" transform="matrix(1,0,0,1,0,0)"
font-family="" font-size="-1" font-weight="400" font-style="normal" 
>
<path vector-effect="none" fill-rule="evenodd" d="M567,963 L565,951 L564,947 L562,942 L559,933 L593,899 L600,894 L603,889 L605,883 L604,881 L604,880 L603,878 L419,820 L395,806 L278,741 L237,791 L231,798 L203,915 L207,925 L211,934 L215,944 L218,953 L222,951 L228,944 L231,942 L232,938 L232,937 L217,958 L219,958 L221,958 L225,957 L232,955 L246,951 L261,948 L275,944 L276,943 L250,957 L250,958 L250,959 L250,960 L250,963 L567,963"/>
</g>

<g fill="#bad473" fill-opacity="0.113725" stroke="none" transform="matrix(1,0,0,1,0,0)"
font-family="" font-size="-1" font-weight="400" font-style="normal" 
>
<path vector-effect="none" fill-rule="evenodd" d="M63,811 L68,811 L63,811 L66,811 L69,811 L71,811 L72,811 L75,811 L74,811 L73,811 L70,811 L69,811 L66,810 L67,810 L67,809 L68,809 L69,808 L70,806 L70,798 L72,808 L73,808 L73,806 L63,811"/>
</g>

<g fill="#533d31" fill-opacity="0.560784" stroke="none" transform="matrix(1,0,0,1,0,0)"
font-family="" font-size="-1" font-weight="400" font-style="normal" 
>
<path vector-effect="none" fill-rule="evenodd" d="M145,758 L219,830 L229,820 L252,803 L256,800 L287,759 L291,766 L294,773 L298,769 L301,767 L306,763 L304,761 L304,760 L304,758 L307,754 L320,734 L363,707 L367,702 L373,690 L378,678 L375,683 L453,686 L463,685 L473,684 L492,682 L531,678 L544,675 L569,667 L578,664 L583,662 L587,660 L674,625 L727,624 L761,635 L791,613 L800,607 L800,591 L800,574 L800,538 L800,515 L800,509 L800,503 L800,490 L794,497 L788,494 L781,490 L774,484 L766,476 L750,463 L145,758"/>
</g>

<g fill="#a6d1c9" fill-opacity="0.160784" stroke="none" transform="matrix(1,0,0,1,0,0)"
font-family="" font-size="-1" font-weight="400" font-style="normal" 
>
<path vector-effect="none" fill-rule="evenodd" d="M388,426 L389,427 L392,428 L393,428 L394,428 L395,428 L394,429 L393,429 L392,429 L390,431 L391,431 L388,426"/>
</g>

<g fill="#8f5f32" fill-opacity="0.709804" stroke="none" transform="matrix(1,0,0,1,0,0)"
font-family="" font-size="-1" font-weight="400" font-style="normal" 
>
<path vector-effect="none" fill-rule="evenodd" d="M780,782 L788,773 L791,779 L796,787 L800,795 L800,805 L800,832 L800,842 L800,843 L800,845 L800,846 L794,854 L771,859 L760,860 L755,862 L752,863 L742,864 L745,862 L739,865 L730,866 L733,873 L736,879 L736,880 L736,881 L736,882 L735,883 L734,882 L733,882 L732,881 L654,914 L642,918 L637,901 L636,898 L634,894 L634,893 L633,891 L632,889 L599,889 L568,861 L566,845 L563,828 L564,790 L568,774 L780,782"/>
</g>

<g fill="#a19d5f" fill-opacity="0.592157" stroke="none" transform="matrix(1,0,0,1,0,0)"
font-family="" font-size="-1" font-weight="400" font-style="normal" 
>
<path vector-effect="none" fill-rule="evenodd" d="M310,248 L291,233 L251,199 L220,216 L220,212 L220,216 L219,216 L213,212 L206,208 L206,213 L203,210 L200,206 L208,206 L210,206 L210,198 L210,200 L210,202 L210,206 L206,209 L202,211 L186,203 L169,195 L77,118 L19,56 L26,55 L33,53 L40,49 L60,42 L100,25 L192,26 L192,25 L192,28 L192,30 L192,34 L192,38 L192,30 L186,30 L227,15 L262,0 L268,2 L269,11 L280,12 L282,20 L310,248"/>
</g>

<g fill="#d3ca43" fill-opacity="0.780392" stroke="none" transform="matrix(1,0,0,1,0,0)"
font-family="" font-size="-1" font-weight="400" font-style="normal" 
>
<path vector-effect="none" fill-rule="evenodd" d="M360,462"/>
</g>

<g fill="#eca344" fill-opacity="0.298039" stroke="none" transform="matrix(1,0,0,1,0,0)"
font-family="" font-size="-1" font-weight="400" font-style="normal" 
>
<path vector-effect="none" fill-rule="evenodd" d="M171,407 L188,378 L189,378 L194,370 L205,354 L211,344 L215,337 L220,323 L224,322 L254,338 L251,339 L250,339 L251,339 L254,339 L261,337 L268,334 L285,327 L298,328 L365,327 L432,326 L544,324 L537,362 L537,363 L537,364 L537,365 L537,367 L539,370 L540,372 L543,377 L548,378 L546,400 L546,401 L546,402 L545,403 L539,449 L532,495 L529,504 L526,513 L526,514 L526,515 L526,513 L526,517 L504,555 L171,407"/>
</g>

<g fill="#b87f44" fill-opacity="0.333333" stroke="none" transform="matrix(1,0,0,1,0,0)"
font-family="" font-size="-1" font-weight="400" font-style="normal" 
>
<path vector-effect="none" fill-rule="evenodd" d="M589,963 L657,935 L641,916 L638,900 L638,899 L637,897 L619,852 L601,806 L634,769 L631,755 L627,740 L620,701 L601,670 L581,629 L573,572 L574,571 L574,569 L563,560 L575,549 L613,528 L627,523 L641,517 L631,402 L621,369 L610,336 L588,281 L566,246 L449,133 L445,160 L441,187 L429,221 L416,254 L412,259 L402,266 L381,313 L373,337 L365,360 L219,468 L219,471 L218,477 L217,480 L211,486 L205,492 L204,492 L186,509 L116,585 L101,601 L106,604 L92,610 L589,963"/>
</g>
</g>
</svg>
